<?xml version="1.0" standalone="no"?>
<!DOCTYPE svg PUBLIC "-//W3C//DTD SVG 20010904//EN"
 "http://www.w3.org/TR/2001/REC-SVG-20010904/DTD/svg10.dtd">
<svg version="1.0" xmlns="http://www.w3.org/2000/svg"
 width="1920.000000pt" height="1080.000000pt" viewBox="0 0 1920.000000 1080.000000"
 preserveAspectRatio="xMidYMid meet">
<metadata>
Created by potrace 1.15, written by Peter Selinger 2001-2017
</metadata>
<g transform="translate(0.000000,1080.000000) scale(0.100000,-0.100000)"
fill="#000000" stroke="none">
<path d="M9720 7600 c0 -5 113 -9 262 -10 393 -1 570 -20 670 -71 113 -58 150
-102 187 -223 26 -85 27 -176 2 -281 -15 -62 -345 -1128 -416 -1342 -7 -24
-10 -43 -6 -43 8 0 391 1213 427 1351 33 130 38 193 20 277 -51 246 -195 326
-606 337 -102 3 -265 7 -362 10 -103 2 -178 1 -178 -5z"/>
<path d="M6925 7583 c300 -13 429 -69 537 -235 31 -45 174 -310 319 -587 145
-277 265 -499 266 -494 3 9 -469 917 -546 1047 -61 106 -134 179 -213 216 -81
37 -214 61 -337 58 -81 -2 -85 -2 -26 -5z"/>
<path d="M9785 7562 c4 -4 151 -10 328 -13 263 -4 336 -9 397 -23 171 -42 245
-101 289 -229 30 -87 33 -152 12 -252 -10 -49 -129 -443 -265 -874 -212 -676
-253 -814 -232 -790 2 2 56 173 121 379 64 206 177 567 251 802 153 490 170
568 148 679 -44 209 -155 289 -444 319 -114 11 -616 13 -605 2z"/>
<path d="M7035 7540 c3 -5 21 -10 38 -10 93 0 225 -57 296 -129 62 -61 74 -83
389 -682 147 -280 268 -505 270 -499 2 5 -36 85 -84 177 -280 537 -469 892
-503 942 -46 67 -104 122 -161 151 -77 39 -262 77 -245 50z"/>
<path d="M6077 6911 c-130 -6 -140 -7 -158 -30 -24 -30 -23 -54 4 -117 42 -97
250 -489 254 -478 2 6 -53 120 -123 253 -69 133 -128 259 -131 279 -4 29 0 41
17 57 20 18 43 20 398 27 207 4 384 10 392 12 22 6 -494 3 -653 -3z"/>
<path d="M9329 6873 c-17 -15 -38 -41 -45 -59 -26 -62 -694 -2187 -689 -2192
3 -3 7 -3 9 -1 2 2 158 495 347 1094 319 1013 346 1093 379 1129 l35 39 278
-5 c280 -5 376 3 180 16 -58 3 -186 6 -284 6 l-177 0 -33 -27z"/>
<path d="M6065 6871 c-49 -3 -96 -10 -102 -14 -30 -19 -11 -72 99 -283 62
-118 116 -214 120 -214 4 0 -31 73 -78 163 -157 298 -163 316 -112 333 12 3
207 10 432 14 l411 7 -340 0 c-187 0 -380 -3 -430 -6z"/>
<path d="M9342 6827 c-30 -31 -64 -131 -388 -1158 -195 -618 -357 -1135 -360
-1149 -21 -98 55 137 361 1105 191 605 355 1118 364 1140 10 22 30 51 44 64
l27 24 290 -7 c198 -5 290 -3 290 4 0 7 -99 10 -298 10 l-298 0 -32 -33z"/>
<path d="M5166 4679 c-186 -591 -341 -1080 -343 -1086 -3 -7 0 -13 5 -13 11 0
685 2133 680 2156 -1 9 -155 -467 -342 -1057z"/>
<path d="M5186 4628 c-186 -589 -340 -1078 -343 -1085 -3 -7 -1 -13 3 -13 11
0 687 2145 682 2160 -2 6 -156 -472 -342 -1062z"/>
<path d="M8563 4417 c-28 -60 -363 -1143 -363 -1171 0 -61 17 -66 196 -65 87
1 206 5 264 9 77 6 37 7 -152 6 -252 -3 -258 -2 -278 19 -11 12 -20 28 -20 36
0 8 83 277 185 599 101 321 183 585 181 587 -1 2 -7 -7 -13 -20z"/>
<path d="M8301 3712 c-79 -251 -146 -473 -148 -492 -4 -28 0 -40 20 -58 l25
-23 226 7 c137 4 226 11 226 17 0 6 -78 7 -223 3 -216 -7 -223 -7 -241 13 -14
15 -17 30 -13 55 3 19 69 235 146 480 78 245 141 448 141 451 0 3 -3 5 -7 5
-5 0 -73 -206 -152 -458z"/>
<path d="M9835 3908 c-2 -7 -77 -245 -165 -528 -150 -477 -211 -644 -255 -695
-16 -19 -16 -19 -1 7 27 46 55 129 49 145 -4 11 -2 14 5 9 8 -5 10 -1 5 10 -5
12 -3 15 6 9 10 -6 11 -2 6 15 -5 16 -4 20 5 15 9 -5 10 -1 5 15 -5 14 -3 20
3 16 6 -4 8 2 4 16 -3 13 -1 19 5 15 7 -5 9 1 5 15 -3 13 -1 19 5 15 7 -5 9 1
5 15 -3 13 -1 19 5 15 7 -5 9 1 5 15 -3 14 -2 19 6 14 14 -8 15 3 3 22 -5 9
-12 -1 -21 -32 -10 -37 -15 -44 -26 -35 -10 8 -14 8 -14 0 0 -6 5 -11 10 -11
6 0 10 -7 10 -16 0 -14 -3 -14 -15 -4 -10 9 -15 9 -15 1 0 -6 5 -11 10 -11 6
0 10 -7 10 -16 0 -14 -3 -14 -15 -4 -9 8 -15 8 -15 2 0 -6 5 -12 11 -14 9 -3
9 -14 0 -41 -11 -31 -15 -36 -27 -26 -9 7 -14 8 -14 1 0 -6 5 -12 11 -14 7 -2
9 -13 4 -27 -7 -22 -7 -22 -28 -4 -22 18 -22 18 -4 -4 17 -20 18 -23 2 -54
-22 -42 -102 -127 -138 -145 -15 -8 -25 -19 -22 -24 3 -4 0 -11 -5 -13 -6 -3
-5 -4 2 -3 7 2 12 9 10 16 -1 6 3 10 10 7 16 -5 50 11 44 22 -3 4 13 25 34 46
48 47 51 38 8 -26 -30 -43 -101 -97 -120 -91 -5 1 -8 -3 -8 -9 0 -5 -4 -7 -10
-4 -5 3 -10 1 -10 -5 0 -31 127 39 186 102 65 70 110 175 208 483 46 149 123
390 169 538 46 147 80 267 75 267 -5 0 -11 -6 -13 -12z"/>
<path d="M9741 3493 c-27 -87 -84 -266 -125 -399 -90 -284 -115 -349 -168
-429 -64 -98 -173 -159 -339 -190 -119 -22 -1156 -41 -1344 -24 -129 11 -170
16 -170 19 0 1 -11 3 -24 6 -14 2 -30 9 -36 14 -7 5 -15 7 -18 3 -4 -3 -7 -1
-7 6 0 7 -4 10 -9 7 -20 -13 -127 82 -179 157 -55 79 -74 98 -48 49 26 -50
105 -149 141 -176 56 -43 139 -76 228 -93 70 -13 171 -14 672 -9 325 4 641 11
704 17 281 26 415 109 499 311 38 91 286 878 279 885 -3 3 -28 -66 -56 -154z"/>
<path d="M7671 2491 c-10 -6 8 -12 55 -18 90 -11 1200 -4 1228 8 13 5 -227 8
-609 6 -346 -1 -637 1 -645 5 -8 4 -21 4 -29 -1z"/>
</g>
</svg>
